<?xml version="1.0" encoding="utf-8" standalone="no"?>
<!DOCTYPE svg PUBLIC "-//W3C//DTD SVG 1.1//EN"
  "http://www.w3.org/Graphics/SVG/1.1/DTD/svg11.dtd">
<svg xmlns:xlink="http://www.w3.org/1999/xlink" width="432pt" height="432pt" viewBox="0 0 432 432" xmlns="http://www.w3.org/2000/svg" version="1.1">
 <metadata>
  <rdf:RDF xmlns:dc="http://purl.org/dc/elements/1.1/" xmlns:cc="http://creativecommons.org/ns#" xmlns:rdf="http://www.w3.org/1999/02/22-rdf-syntax-ns#">
   <cc:Work>
    <dc:type rdf:resource="http://purl.org/dc/dcmitype/StillImage"/>
    <dc:date>2025-07-13T23:10:19.537566</dc:date>
    <dc:format>image/svg+xml</dc:format>
    <dc:creator>
     <cc:Agent>
      <dc:title>Matplotlib v3.10.3, https://matplotlib.org/</dc:title>
     </cc:Agent>
    </dc:creator>
   </cc:Work>
  </rdf:RDF>
 </metadata>
 <defs>
  <style type="text/css">*{stroke-linejoin: round; stroke-linecap: butt}</style>
 </defs>
 <g id="figure_1">
  <g id="patch_1">
   <path d="M 0 432 
L 432 432 
L 432 0 
L 0 0 
z
" style="fill: #ffffff"/>
  </g>
  <g id="axes_1">
   <g id="patch_2">
    <path d="M 54 384.48 
L 388.8 384.48 
L 388.8 51.84 
L 54 51.84 
z
" style="fill: #ffffff"/>
   </g>
   <g id="FillBetweenPolyCollection_1">
    <defs>
     <path id="mc52a6625e3" d="M 69.218182 -91.457008 
L 69.218182 -63.627255 
L 75.429685 -63.348859 
L 81.641187 -64.777283 
L 87.85269 -64.761375 
L 94.064193 -65.175164 
L 100.275696 -66.302631 
L 106.487199 -67.361857 
L 112.698701 -67.798697 
L 118.910204 -68.453171 
L 125.121707 -68.986542 
L 131.33321 -69.807678 
L 137.544712 -71.812066 
L 143.756215 -72.873029 
L 149.967718 -68.637959 
L 156.179221 -70.96269 
L 162.390724 -70.002268 
L 168.602226 -71.740917 
L 174.813729 -72.617843 
L 181.025232 -73.852121 
L 187.236735 -74.408606 
L 193.448237 -77.715987 
L 199.65974 -77.364584 
L 205.871243 -84.535138 
L 212.082746 -84.315717 
L 218.294249 -85.733815 
L 224.505751 -88.2199 
L 230.717254 -89.071061 
L 236.928757 -90.135706 
L 243.14026 -92.419954 
L 249.351763 -92.680557 
L 255.563265 -94.232956 
L 261.774768 -97.89877 
L 267.986271 -95.878587 
L 274.197774 -91.34066 
L 280.409276 -92.09264 
L 286.620779 -97.226711 
L 292.832282 -102.320736 
L 299.043785 -107.759946 
L 305.255288 -114.058986 
L 311.46679 -106.514414 
L 317.678293 -106.439958 
L 323.889796 -101.80019 
L 330.101299 -102.066902 
L 336.312801 -116.524939 
L 342.524304 -110.714531 
L 348.735807 -104.224967 
L 354.94731 -106.915378 
L 361.158813 -106.311444 
L 367.370315 -108.470698 
L 373.581818 -108.51859 
L 373.581818 -365.04 
L 373.581818 -365.04 
L 367.370315 -354.095006 
L 361.158813 -361.271924 
L 354.94731 -335.670971 
L 348.735807 -329.997166 
L 342.524304 -340.455583 
L 336.312801 -345.055408 
L 330.101299 -304.962042 
L 323.889796 -298.798308 
L 317.678293 -339.659641 
L 311.46679 -313.197585 
L 305.255288 -334.561689 
L 299.043785 -307.143694 
L 292.832282 -289.12608 
L 286.620779 -251.593457 
L 280.409276 -241.328212 
L 274.197774 -231.420531 
L 267.986271 -257.480803 
L 261.774768 -246.187494 
L 255.563265 -238.893563 
L 249.351763 -232.096556 
L 243.14026 -226.367793 
L 236.928757 -216.843208 
L 230.717254 -211.612739 
L 224.505751 -205.075642 
L 218.294249 -197.4445 
L 212.082746 -190.6556 
L 205.871243 -186.280399 
L 199.65974 -169.33041 
L 193.448237 -155.499615 
L 187.236735 -151.317689 
L 181.025232 -146.013875 
L 174.813729 -142.683244 
L 168.602226 -138.082641 
L 162.390724 -133.608434 
L 156.179221 -129.671418 
L 149.967718 -124.82057 
L 143.756215 -128.857704 
L 137.544712 -128.333084 
L 131.33321 -122.530835 
L 125.121707 -119.226465 
L 118.910204 -115.521412 
L 112.698701 -111.383819 
L 106.487199 -109.732573 
L 100.275696 -105.78899 
L 94.064193 -102.916805 
L 87.85269 -99.578546 
L 81.641187 -96.922576 
L 75.429685 -94.042032 
L 69.218182 -91.457008 
z
"/>
    </defs>
    <g clip-path="url(#p12f1e7a896)">
     <use xlink:href="#mc52a6625e3" x="0" y="432" style="fill: #ea76cb; fill-opacity: 0.3"/>
    </g>
   </g>
   <g id="FillBetweenPolyCollection_2">
    <defs>
     <path id="mba852a4b1d" d="M 69.218182 -75.535289 
L 69.218182 -62.990478 
L 75.429685 -62.64 
L 81.641187 -64.743415 
L 87.85269 -70.912306 
L 94.064193 -71.456449 
L 100.275696 -65.808645 
L 106.487199 -65.728886 
L 112.698701 -66.469067 
L 118.910204 -67.175334 
L 125.121707 -68.106217 
L 131.33321 -69.336488 
L 137.544712 -69.295409 
L 143.756215 -70.693595 
L 149.967718 -71.999188 
L 156.179221 -72.769569 
L 162.390724 -74.915074 
L 168.602226 -73.801414 
L 174.813729 -79.025694 
L 181.025232 -78.103852 
L 187.236735 -77.702401 
L 193.448237 -79.723999 
L 199.65974 -87.430629 
L 205.871243 -87.581546 
L 212.082746 -86.811976 
L 218.294249 -84.031524 
L 224.505751 -83.262926 
L 230.717254 -84.686429 
L 236.928757 -87.012187 
L 243.14026 -92.183704 
L 249.351763 -88.54132 
L 255.563265 -89.948748 
L 261.774768 -90.332829 
L 267.986271 -89.996424 
L 274.197774 -101.078782 
L 280.409276 -94.64609 
L 286.620779 -93.521172 
L 292.832282 -94.244638 
L 299.043785 -98.049851 
L 305.255288 -95.698935 
L 311.46679 -104.999403 
L 317.678293 -108.724434 
L 323.889796 -108.348946 
L 330.101299 -109.38009 
L 336.312801 -98.669538 
L 342.524304 -98.84317 
L 348.735807 -101.217949 
L 354.94731 -104.094348 
L 361.158813 -103.869408 
L 367.370315 -106.144564 
L 373.581818 -107.569913 
L 373.581818 -259.071936 
L 373.581818 -259.071936 
L 367.370315 -255.469349 
L 361.158813 -245.442528 
L 354.94731 -230.847584 
L 348.735807 -223.888698 
L 342.524304 -220.051233 
L 336.312801 -215.3894 
L 330.101299 -231.449417 
L 323.889796 -229.59334 
L 317.678293 -225.582137 
L 311.46679 -222.870077 
L 305.255288 -193.641724 
L 299.043785 -188.61879 
L 292.832282 -185.375144 
L 286.620779 -193.953397 
L 280.409276 -176.583181 
L 274.197774 -183.869221 
L 267.986271 -179.588938 
L 261.774768 -165.328214 
L 255.563265 -162.612799 
L 249.351763 -160.308397 
L 243.14026 -165.448245 
L 236.928757 -148.346378 
L 230.717254 -145.866933 
L 224.505751 -142.305256 
L 218.294249 -138.528978 
L 212.082746 -140.605844 
L 205.871243 -144.23938 
L 199.65974 -141.083385 
L 193.448237 -129.449272 
L 187.236735 -121.892527 
L 181.025232 -120.623521 
L 174.813729 -117.654012 
L 168.602226 -113.626367 
L 162.390724 -112.164447 
L 156.179221 -108.510998 
L 149.967718 -105.569883 
L 143.756215 -102.729325 
L 137.544712 -99.999293 
L 131.33321 -98.228658 
L 125.121707 -94.956341 
L 118.910204 -92.025229 
L 112.698701 -89.695811 
L 106.487199 -88.557656 
L 100.275696 -85.839982 
L 94.064193 -85.908535 
L 87.85269 -92.069258 
L 81.641187 -83.246949 
L 75.429685 -77.231551 
L 69.218182 -75.535289 
z
"/>
    </defs>
    <g clip-path="url(#p12f1e7a896)">
     <use xlink:href="#mba852a4b1d" x="0" y="432" style="fill: #40a02b; fill-opacity: 0.3"/>
    </g>
   </g>
   <g id="matplotlib.axis_1">
    <g id="xtick_1">
     <g id="line2d_1">
      <defs>
       <path id="mfa3b75252f" d="M 0 0 
L 0 3.5 
" style="stroke: #000000; stroke-width: 0.8"/>
      </defs>
      <g>
       <use xlink:href="#mfa3b75252f" x="69.218182" y="384.48" style="stroke: #000000; stroke-width: 0.8"/>
      </g>
     </g>
     <g id="text_1">
      <!-- 200 -->
      <g transform="translate(60.848182 399.855625) scale(0.12 -0.12)">
       <defs>
        <path id="LibertinusSerif-Regular-32" d="M 390 2995 
Q 390 3187 531 3398 
Q 672 3610 931 3757 
Q 1190 3904 1542 3904 
Q 1805 3904 2051 3805 
Q 2298 3706 2461 3491 
Q 2624 3277 2624 2931 
Q 2624 2566 2441 2320 
Q 2259 2074 1984 1811 
L 1338 1190 
Q 1325 1178 1251 1101 
Q 1178 1024 1088 905 
Q 998 787 931 659 
Q 864 531 864 416 
L 2003 416 
Q 2176 416 2272 553 
Q 2368 691 2451 1030 
Q 2573 1056 2637 998 
Q 2637 902 2614 729 
Q 2592 557 2560 355 
Q 2528 154 2483 -13 
Q 2483 -13 2400 -9 
Q 2317 -6 2201 -3 
Q 2086 0 1984 0 
L 864 0 
Q 762 0 637 -3 
Q 512 -6 422 -9 
Q 333 -13 333 -13 
Q 333 179 384 358 
Q 435 538 592 765 
Q 749 992 1062 1312 
L 1536 1779 
Q 1818 2067 1939 2332 
Q 2061 2598 2061 2906 
Q 2061 3213 1971 3382 
Q 1882 3552 1750 3616 
Q 1619 3680 1504 3680 
Q 1152 3680 1011 3545 
Q 870 3411 870 3290 
Q 870 3251 892 3209 
Q 915 3168 922 3136 
Q 934 3104 940 3072 
Q 947 3040 947 3002 
Q 947 2893 838 2819 
Q 730 2746 646 2746 
Q 544 2746 467 2819 
Q 390 2893 390 2995 
z
" transform="scale(0.015625)"/>
        <path id="LibertinusSerif-Regular-30" d="M 1459 -64 
Q 1082 -64 813 205 
Q 550 467 400 918 
Q 250 1370 250 1882 
Q 250 2515 426 2969 
Q 602 3424 886 3664 
Q 1171 3904 1485 3904 
Q 1747 3904 1942 3779 
Q 2138 3654 2266 3488 
Q 2701 2912 2701 1939 
Q 2701 1376 2579 992 
Q 2458 608 2266 374 
Q 2074 141 1859 38 
Q 1645 -64 1459 -64 
z
M 1485 3680 
Q 1376 3680 1257 3606 
Q 1139 3533 1036 3334 
Q 934 3136 870 2768 
Q 806 2400 806 1811 
Q 806 1600 825 1321 
Q 845 1043 912 777 
Q 979 512 1110 336 
Q 1242 160 1466 160 
Q 1523 160 1632 195 
Q 1741 230 1853 355 
Q 1965 480 2035 742 
Q 2106 986 2125 1302 
Q 2144 1619 2144 2061 
Q 2144 2707 2032 3078 
Q 1920 3450 1773 3571 
Q 1651 3680 1485 3680 
z
" transform="scale(0.015625)"/>
       </defs>
       <use xlink:href="#LibertinusSerif-Regular-32"/>
       <use xlink:href="#LibertinusSerif-Regular-30" transform="translate(46.499985 0)"/>
       <use xlink:href="#LibertinusSerif-Regular-30" transform="translate(92.999969 0)"/>
      </g>
     </g>
    </g>
    <g id="xtick_2">
     <g id="line2d_2">
      <g>
       <use xlink:href="#mfa3b75252f" x="131.33321" y="384.48" style="stroke: #000000; stroke-width: 0.8"/>
      </g>
     </g>
     <g id="text_2">
      <!-- 250 -->
      <g transform="translate(122.96321 399.855625) scale(0.12 -0.12)">
       <defs>
        <path id="LibertinusSerif-Regular-35" d="M 2042 1210 
Q 2042 1734 1827 1958 
Q 1613 2182 1299 2182 
Q 1126 2182 934 2153 
Q 742 2125 486 2029 
L 704 3872 
Q 870 3859 1043 3849 
Q 1216 3840 1395 3840 
Q 1651 3840 1910 3862 
Q 2170 3885 2445 3910 
L 2490 3885 
L 2387 3450 
Q 1997 3411 1715 3411 
Q 1485 3411 1315 3430 
Q 1146 3450 966 3469 
L 838 2400 
Q 928 2432 1094 2467 
Q 1261 2502 1466 2502 
Q 1824 2502 2080 2336 
Q 2336 2170 2473 1904 
Q 2611 1638 2611 1325 
Q 2611 922 2438 608 
Q 2266 294 1958 112 
Q 1651 -70 1254 -70 
Q 1075 -70 860 -6 
Q 646 58 496 170 
Q 346 282 346 410 
Q 346 506 422 576 
Q 499 646 589 646 
Q 691 646 771 585 
Q 851 525 915 442 
Q 986 346 1072 250 
Q 1158 154 1338 154 
Q 1530 154 1690 291 
Q 1850 429 1946 669 
Q 2042 909 2042 1210 
z
" transform="scale(0.015625)"/>
       </defs>
       <use xlink:href="#LibertinusSerif-Regular-32"/>
       <use xlink:href="#LibertinusSerif-Regular-35" transform="translate(46.499985 0)"/>
       <use xlink:href="#LibertinusSerif-Regular-30" transform="translate(92.999969 0)"/>
      </g>
     </g>
    </g>
    <g id="xtick_3">
     <g id="line2d_3">
      <g>
       <use xlink:href="#mfa3b75252f" x="193.448237" y="384.48" style="stroke: #000000; stroke-width: 0.8"/>
      </g>
     </g>
     <g id="text_3">
      <!-- 300 -->
      <g transform="translate(185.078237 399.855625) scale(0.12 -0.12)">
       <defs>
        <path id="LibertinusSerif-Regular-33" d="M 1376 3680 
Q 1293 3680 1149 3645 
Q 1005 3610 886 3504 
Q 768 3398 768 3194 
Q 768 3136 752 3056 
Q 736 2976 685 2918 
Q 634 2861 518 2861 
Q 403 2861 352 2937 
Q 301 3014 301 3078 
Q 301 3155 358 3292 
Q 416 3430 553 3571 
Q 691 3712 924 3808 
Q 1158 3904 1510 3904 
Q 1760 3904 1933 3833 
Q 2106 3763 2208 3654 
Q 2323 3539 2364 3414 
Q 2406 3290 2406 3149 
Q 2406 2893 2268 2688 
Q 2131 2483 1734 2298 
L 1741 2285 
Q 1933 2253 2141 2147 
Q 2349 2042 2496 1834 
Q 2643 1626 2643 1274 
Q 2643 851 2441 550 
Q 2240 250 1913 93 
Q 1587 -64 1203 -64 
Q 1011 -64 796 -9 
Q 582 45 432 141 
Q 282 237 282 365 
Q 282 442 365 515 
Q 448 589 550 589 
Q 646 589 713 541 
Q 781 493 826 422 
Q 883 339 963 249 
Q 1043 160 1286 160 
Q 1370 160 1501 201 
Q 1632 243 1766 352 
Q 1901 461 1990 662 
Q 2080 864 2080 1184 
Q 2080 1549 1945 1725 
Q 1811 1901 1619 1955 
Q 1427 2010 1242 2010 
Q 1178 2010 1098 2010 
Q 1018 2010 934 1997 
L 902 2202 
Q 1222 2246 1446 2400 
Q 1670 2554 1788 2749 
Q 1907 2944 1907 3104 
Q 1907 3411 1744 3545 
Q 1581 3680 1376 3680 
z
" transform="scale(0.015625)"/>
       </defs>
       <use xlink:href="#LibertinusSerif-Regular-33"/>
       <use xlink:href="#LibertinusSerif-Regular-30" transform="translate(46.499985 0)"/>
       <use xlink:href="#LibertinusSerif-Regular-30" transform="translate(92.999969 0)"/>
      </g>
     </g>
    </g>
    <g id="xtick_4">
     <g id="line2d_4">
      <g>
       <use xlink:href="#mfa3b75252f" x="255.563265" y="384.48" style="stroke: #000000; stroke-width: 0.8"/>
      </g>
     </g>
     <g id="text_4">
      <!-- 350 -->
      <g transform="translate(247.193265 399.855625) scale(0.12 -0.12)">
       <use xlink:href="#LibertinusSerif-Regular-33"/>
       <use xlink:href="#LibertinusSerif-Regular-35" transform="translate(46.499985 0)"/>
       <use xlink:href="#LibertinusSerif-Regular-30" transform="translate(92.999969 0)"/>
      </g>
     </g>
    </g>
    <g id="xtick_5">
     <g id="line2d_5">
      <g>
       <use xlink:href="#mfa3b75252f" x="317.678293" y="384.48" style="stroke: #000000; stroke-width: 0.8"/>
      </g>
     </g>
     <g id="text_5">
      <!-- 400 -->
      <g transform="translate(309.308293 399.855625) scale(0.12 -0.12)">
       <defs>
        <path id="LibertinusSerif-Regular-34" d="M 2752 1402 
Q 2848 1402 2848 1299 
Q 2848 1242 2790 1171 
Q 2733 1101 2662 1101 
L 2221 1101 
L 2221 512 
Q 2221 358 2269 300 
Q 2317 243 2416 227 
Q 2515 211 2669 198 
Q 2701 173 2701 96 
Q 2701 19 2669 -13 
Q 2515 -6 2339 -3 
Q 2163 0 1971 0 
Q 1754 0 1562 -3 
Q 1370 -6 1216 -13 
Q 1190 19 1190 96 
Q 1190 173 1216 198 
Q 1357 211 1472 227 
Q 1587 243 1660 304 
Q 1734 365 1734 512 
L 1734 1101 
L 429 1101 
Q 288 1101 240 1200 
Q 192 1299 179 1370 
Q 397 1715 637 2070 
Q 877 2426 1113 2758 
Q 1350 3091 1555 3369 
Q 1760 3648 1914 3834 
Q 1933 3853 1958 3878 
Q 1984 3904 2016 3904 
L 2221 3904 
L 2234 3891 
Q 2227 3853 2224 3683 
Q 2221 3514 2221 3270 
L 2221 1402 
L 2752 1402 
z
M 1734 3245 
Q 1402 2790 1078 2294 
Q 755 1798 512 1402 
L 1734 1402 
L 1734 3245 
z
" transform="scale(0.015625)"/>
       </defs>
       <use xlink:href="#LibertinusSerif-Regular-34"/>
       <use xlink:href="#LibertinusSerif-Regular-30" transform="translate(46.499985 0)"/>
       <use xlink:href="#LibertinusSerif-Regular-30" transform="translate(92.999969 0)"/>
      </g>
     </g>
    </g>
    <g id="xtick_6">
     <g id="line2d_6">
      <g>
       <use xlink:href="#mfa3b75252f" x="379.793321" y="384.48" style="stroke: #000000; stroke-width: 0.8"/>
      </g>
     </g>
     <g id="text_6">
      <!-- 450 -->
      <g transform="translate(371.423321 399.855625) scale(0.12 -0.12)">
       <use xlink:href="#LibertinusSerif-Regular-34"/>
       <use xlink:href="#LibertinusSerif-Regular-35" transform="translate(46.499985 0)"/>
       <use xlink:href="#LibertinusSerif-Regular-30" transform="translate(92.999969 0)"/>
      </g>
     </g>
    </g>
    <g id="text_7">
     <!-- Array Size -->
     <g transform="translate(191.383125 416.435938) scale(0.14 -0.14)">
      <defs>
       <path id="LibertinusSerif-Regular-41" d="M 992 506 
Q 941 371 1005 310 
Q 1069 250 1190 227 
Q 1312 205 1434 198 
Q 1466 173 1466 96 
Q 1466 19 1434 -13 
Q 1254 -6 1033 -3 
Q 813 0 614 0 
Q 467 0 320 -3 
Q 173 -6 45 -13 
Q 19 19 19 96 
Q 19 173 45 198 
Q 256 211 409 284 
Q 563 358 685 653 
L 2138 4083 
Q 2202 4083 2310 4124 
Q 2419 4166 2490 4211 
L 3808 550 
Q 3891 320 4044 269 
Q 4198 218 4384 198 
Q 4416 173 4416 96 
Q 4416 19 4384 -13 
Q 4218 -6 4035 -3 
Q 3853 0 3654 0 
Q 3469 0 3232 -3 
Q 2995 -6 2816 -13 
Q 2790 19 2790 96 
Q 2790 173 2816 198 
Q 3046 218 3196 256 
Q 3347 294 3290 461 
L 2918 1542 
L 1568 1542 
Q 1453 1542 1411 1520 
Q 1370 1498 1344 1434 
L 992 506 
z
M 1683 1811 
L 2816 1811 
L 2214 3552 
L 2176 3552 
L 1523 1894 
Q 1504 1850 1542 1830 
Q 1581 1811 1683 1811 
z
" transform="scale(0.015625)"/>
       <path id="LibertinusSerif-Regular-72" d="M 1126 2291 
Q 1126 2266 1148 2246 
Q 1171 2227 1197 2278 
Q 1306 2464 1494 2637 
Q 1683 2810 1907 2810 
Q 2112 2810 2201 2701 
Q 2291 2592 2291 2502 
Q 2291 2381 2198 2281 
Q 2106 2182 1990 2182 
Q 1907 2182 1852 2233 
Q 1798 2285 1760 2330 
Q 1722 2381 1680 2397 
Q 1638 2413 1594 2413 
Q 1555 2413 1500 2355 
Q 1446 2298 1392 2224 
Q 1338 2150 1299 2099 
Q 1242 2016 1194 1907 
Q 1146 1798 1146 1670 
L 1146 781 
Q 1146 518 1184 400 
Q 1222 282 1334 250 
Q 1446 218 1670 198 
Q 1702 173 1702 96 
Q 1702 19 1670 -13 
Q 1504 -6 1296 -3 
Q 1088 0 896 0 
Q 704 0 518 -3 
Q 333 -6 166 -13 
Q 141 19 141 96 
Q 141 173 166 198 
Q 365 211 467 246 
Q 570 282 605 400 
Q 640 518 640 781 
L 640 2029 
Q 640 2214 608 2300 
Q 576 2387 486 2419 
Q 397 2451 224 2464 
Q 218 2496 211 2557 
Q 205 2618 211 2643 
Q 544 2688 704 2733 
Q 864 2778 998 2829 
Q 1037 2829 1049 2813 
Q 1062 2797 1075 2778 
Q 1101 2726 1110 2604 
Q 1120 2483 1126 2291 
z
" transform="scale(0.015625)"/>
       <path id="LibertinusSerif-Regular-61" d="M 1875 307 
L 1862 307 
L 1734 205 
Q 1523 45 1363 -9 
Q 1203 -64 1037 -64 
Q 704 -64 467 86 
Q 230 237 230 627 
Q 230 954 528 1197 
Q 826 1440 1286 1555 
L 1837 1690 
Q 1875 1702 1875 1766 
Q 1875 2131 1792 2307 
Q 1709 2483 1587 2540 
Q 1466 2598 1357 2598 
Q 1178 2598 1011 2537 
Q 845 2477 845 2330 
Q 845 2278 848 2246 
Q 851 2214 858 2202 
Q 877 2163 877 2086 
Q 877 2022 797 1945 
Q 717 1869 576 1869 
Q 352 1869 352 2099 
Q 352 2285 505 2445 
Q 659 2605 902 2707 
Q 1146 2810 1408 2810 
Q 1645 2810 1865 2730 
Q 2086 2650 2230 2416 
Q 2374 2182 2374 1728 
L 2374 787 
Q 2374 570 2400 406 
Q 2426 243 2566 243 
Q 2630 243 2697 278 
Q 2765 314 2803 346 
Q 2893 294 2912 173 
Q 2810 77 2650 6 
Q 2490 -64 2304 -64 
Q 2061 -64 1984 48 
Q 1907 160 1875 307 
z
M 1875 1491 
L 1370 1357 
Q 1018 1267 890 1068 
Q 762 870 762 653 
Q 762 506 874 352 
Q 986 198 1222 198 
Q 1357 198 1510 288 
Q 1664 378 1786 480 
Q 1824 512 1849 547 
Q 1875 582 1875 646 
L 1875 1491 
z
" transform="scale(0.015625)"/>
       <path id="LibertinusSerif-Regular-79" d="M 1306 -1024 
Q 1133 -1331 960 -1408 
Q 787 -1485 685 -1485 
Q 557 -1485 470 -1417 
Q 384 -1350 384 -1248 
Q 384 -1184 454 -1078 
Q 525 -973 666 -973 
Q 717 -973 752 -982 
Q 787 -992 851 -992 
Q 1069 -992 1171 -806 
Q 1242 -659 1302 -518 
Q 1363 -378 1421 -218 
Q 1453 -128 1440 -13 
Q 1427 102 1392 211 
Q 1357 320 1331 384 
L 608 2067 
Q 525 2266 457 2362 
Q 390 2458 310 2496 
Q 230 2534 102 2547 
Q 77 2579 77 2656 
Q 77 2733 102 2758 
Q 198 2752 329 2749 
Q 461 2746 621 2746 
Q 794 2746 979 2749 
Q 1165 2752 1344 2758 
Q 1376 2733 1376 2656 
Q 1376 2579 1344 2547 
Q 1075 2528 1062 2432 
Q 1050 2336 1133 2131 
L 1702 800 
Q 1779 621 1856 794 
L 2490 2259 
Q 2541 2374 2502 2432 
Q 2464 2490 2374 2515 
Q 2285 2541 2182 2547 
Q 2157 2579 2157 2656 
Q 2157 2733 2182 2758 
Q 2330 2752 2477 2749 
Q 2624 2746 2765 2746 
Q 2899 2746 3011 2749 
Q 3123 2752 3219 2758 
Q 3251 2733 3251 2656 
Q 3251 2579 3219 2547 
Q 2995 2522 2896 2432 
Q 2797 2342 2701 2138 
Q 2534 1779 2371 1414 
Q 2208 1050 2016 598 
Q 1824 147 1568 -474 
Q 1510 -614 1446 -752 
Q 1382 -890 1306 -1024 
z
" transform="scale(0.015625)"/>
       <path id="LibertinusSerif-Regular-20" transform="scale(0.015625)"/>
       <path id="LibertinusSerif-Regular-53" d="M 2528 4038 
Q 2573 3782 2598 3612 
Q 2624 3443 2643 3213 
Q 2598 3181 2540 3174 
Q 2483 3168 2432 3174 
Q 2368 3386 2265 3571 
Q 2163 3757 1977 3875 
Q 1792 3994 1485 3994 
Q 1293 3994 1136 3888 
Q 979 3782 880 3619 
Q 781 3456 781 3277 
Q 781 3072 886 2925 
Q 992 2778 1152 2669 
Q 1312 2560 1485 2483 
Q 1658 2406 1805 2355 
Q 2067 2253 2304 2109 
Q 2541 1965 2691 1741 
Q 2842 1517 2842 1178 
Q 2842 870 2678 595 
Q 2515 320 2240 147 
Q 1901 -64 1453 -64 
Q 1165 -64 985 -29 
Q 806 6 656 44 
Q 506 83 301 83 
Q 262 243 240 368 
Q 218 493 202 653 
Q 186 813 173 1056 
Q 275 1107 384 1075 
Q 486 595 771 380 
Q 1056 166 1504 166 
Q 1888 166 2096 364 
Q 2304 563 2304 954 
Q 2304 1267 2169 1449 
Q 2035 1632 1836 1731 
Q 1638 1830 1446 1907 
Q 1165 2016 909 2166 
Q 653 2317 489 2541 
Q 326 2765 326 3104 
Q 326 3443 496 3692 
Q 666 3942 944 4076 
Q 1222 4211 1542 4211 
Q 1779 4211 1913 4192 
Q 2048 4173 2131 4144 
Q 2214 4115 2300 4086 
Q 2387 4058 2528 4038 
z
" transform="scale(0.015625)"/>
       <path id="LibertinusSerif-Regular-69" d="M 1158 781 
Q 1158 518 1193 400 
Q 1229 282 1328 246 
Q 1427 211 1619 198 
Q 1651 173 1651 96 
Q 1651 19 1619 -13 
Q 1459 -6 1280 -3 
Q 1101 0 909 0 
Q 717 0 534 -3 
Q 352 -6 192 -13 
Q 166 19 166 96 
Q 166 173 192 198 
Q 390 218 486 250 
Q 582 282 617 400 
Q 653 518 653 781 
L 653 2029 
Q 653 2214 621 2300 
Q 589 2387 499 2416 
Q 410 2445 237 2464 
Q 230 2496 224 2557 
Q 218 2618 224 2643 
Q 557 2688 761 2733 
Q 966 2778 1101 2829 
Q 1184 2829 1184 2784 
Q 1184 2784 1177 2669 
Q 1171 2554 1164 2384 
Q 1158 2214 1158 2054 
L 1158 781 
z
M 576 3814 
Q 576 3930 685 4026 
Q 794 4122 909 4122 
Q 1037 4122 1126 4013 
Q 1216 3904 1216 3789 
Q 1216 3686 1117 3584 
Q 1018 3482 883 3482 
Q 768 3482 672 3587 
Q 576 3693 576 3814 
z
" transform="scale(0.015625)"/>
       <path id="LibertinusSerif-Regular-7a" d="M 454 2810 
Q 525 2784 601 2765 
Q 678 2746 832 2746 
L 2003 2746 
Q 2144 2746 2259 2752 
Q 2374 2758 2400 2758 
Q 2477 2758 2477 2714 
Q 2477 2694 2454 2646 
Q 2432 2598 2362 2477 
Q 2214 2234 2022 1936 
Q 1830 1638 1622 1328 
Q 1414 1018 1209 730 
Q 1005 442 826 218 
L 1677 218 
Q 1926 224 2054 336 
Q 2182 448 2304 704 
L 2394 890 
Q 2515 890 2586 851 
Q 2554 614 2496 380 
Q 2438 147 2381 -19 
L 384 0 
Q 237 0 237 77 
Q 237 102 246 124 
Q 256 147 294 205 
Q 544 544 825 944 
Q 1107 1344 1379 1753 
Q 1651 2163 1869 2528 
L 1050 2509 
Q 909 2502 768 2390 
Q 627 2278 531 1926 
Q 474 1914 419 1920 
Q 365 1926 320 1946 
Q 365 2182 387 2368 
Q 410 2554 416 2771 
Q 416 2810 454 2810 
z
" transform="scale(0.015625)"/>
       <path id="LibertinusSerif-Regular-65" d="M 2470 595 
Q 2579 589 2605 493 
Q 2413 243 2147 89 
Q 1882 -64 1517 -64 
Q 1171 -64 937 45 
Q 704 154 538 346 
Q 378 531 307 777 
Q 237 1024 237 1293 
Q 237 1658 355 1939 
Q 474 2221 666 2409 
Q 858 2598 1082 2697 
Q 1306 2797 1517 2797 
Q 1965 2797 2195 2630 
Q 2426 2464 2512 2208 
Q 2598 1952 2598 1683 
Q 2598 1574 2477 1574 
L 774 1587 
Q 774 1312 828 1091 
Q 883 870 979 710 
Q 1126 467 1315 358 
Q 1504 250 1677 250 
Q 1958 250 2124 333 
Q 2291 416 2470 595 
z
M 794 1805 
L 1952 1824 
Q 2048 1824 2048 1914 
Q 2048 2182 1965 2329 
Q 1882 2477 1760 2531 
Q 1638 2586 1517 2586 
Q 1459 2586 1356 2563 
Q 1254 2541 1142 2467 
Q 1030 2394 934 2234 
Q 838 2074 794 1805 
z
" transform="scale(0.015625)"/>
      </defs>
      <use xlink:href="#LibertinusSerif-Regular-41"/>
      <use xlink:href="#LibertinusSerif-Regular-72" transform="translate(69.499985 0)"/>
      <use xlink:href="#LibertinusSerif-Regular-72" transform="translate(106.699982 0)"/>
      <use xlink:href="#LibertinusSerif-Regular-61" transform="translate(143.899979 0)"/>
      <use xlink:href="#LibertinusSerif-Regular-79" transform="translate(189.599976 0)"/>
      <use xlink:href="#LibertinusSerif-Regular-20" transform="translate(241.09996 0)"/>
      <use xlink:href="#LibertinusSerif-Regular-53" transform="translate(266.099945 0)"/>
      <use xlink:href="#LibertinusSerif-Regular-69" transform="translate(314.59993 0)"/>
      <use xlink:href="#LibertinusSerif-Regular-7a" transform="translate(341.699921 0)"/>
      <use xlink:href="#LibertinusSerif-Regular-65" transform="translate(384.099915 0)"/>
     </g>
    </g>
   </g>
   <g id="matplotlib.axis_2">
    <g id="ytick_1">
     <g id="line2d_7">
      <defs>
       <path id="mf38b047505" d="M 0 0 
L -3.5 0 
" style="stroke: #000000; stroke-width: 0.8"/>
      </defs>
      <g>
       <use xlink:href="#mf38b047505" x="54" y="340.920326" style="stroke: #000000; stroke-width: 0.8"/>
      </g>
     </g>
     <g id="text_8">
      <!-- 10 -->
      <g transform="translate(35.84 345.108139) scale(0.12 -0.12)">
       <defs>
        <path id="LibertinusSerif-Regular-31" d="M 1843 781 
Q 1843 518 1888 396 
Q 1933 275 2054 243 
Q 2176 211 2400 198 
Q 2432 173 2432 96 
Q 2432 19 2400 -13 
Q 2163 -6 2006 -3 
Q 1850 0 1619 0 
Q 1357 0 1161 -3 
Q 966 -6 730 -13 
Q 704 19 704 96 
Q 704 173 730 198 
Q 954 211 1091 243 
Q 1229 275 1289 396 
Q 1350 518 1350 781 
L 1350 2867 
Q 1350 3034 1324 3136 
Q 1299 3238 1222 3238 
Q 1133 3238 1008 3203 
Q 883 3168 666 3078 
Q 589 3130 570 3251 
Q 992 3450 1277 3587 
Q 1562 3725 1824 3891 
Q 1862 3891 1862 3859 
Q 1856 3795 1849 3542 
Q 1843 3290 1843 3002 
L 1843 781 
z
" transform="scale(0.015625)"/>
       </defs>
       <use xlink:href="#LibertinusSerif-Regular-31"/>
       <use xlink:href="#LibertinusSerif-Regular-30" transform="translate(46.499985 0)"/>
      </g>
     </g>
    </g>
    <g id="ytick_2">
     <g id="line2d_8">
      <g>
       <use xlink:href="#mf38b047505" x="54" y="286.809094" style="stroke: #000000; stroke-width: 0.8"/>
      </g>
     </g>
     <g id="text_9">
      <!-- 20 -->
      <g transform="translate(35.84 290.996906) scale(0.12 -0.12)">
       <use xlink:href="#LibertinusSerif-Regular-32"/>
       <use xlink:href="#LibertinusSerif-Regular-30" transform="translate(46.499985 0)"/>
      </g>
     </g>
    </g>
    <g id="ytick_3">
     <g id="line2d_9">
      <g>
       <use xlink:href="#mf38b047505" x="54" y="232.697862" style="stroke: #000000; stroke-width: 0.8"/>
      </g>
     </g>
     <g id="text_10">
      <!-- 30 -->
      <g transform="translate(35.84 236.885674) scale(0.12 -0.12)">
       <use xlink:href="#LibertinusSerif-Regular-33"/>
       <use xlink:href="#LibertinusSerif-Regular-30" transform="translate(46.499985 0)"/>
      </g>
     </g>
    </g>
    <g id="ytick_4">
     <g id="line2d_10">
      <g>
       <use xlink:href="#mf38b047505" x="54" y="178.586629" style="stroke: #000000; stroke-width: 0.8"/>
      </g>
     </g>
     <g id="text_11">
      <!-- 40 -->
      <g transform="translate(35.84 182.774442) scale(0.12 -0.12)">
       <use xlink:href="#LibertinusSerif-Regular-34"/>
       <use xlink:href="#LibertinusSerif-Regular-30" transform="translate(46.499985 0)"/>
      </g>
     </g>
    </g>
    <g id="ytick_5">
     <g id="line2d_11">
      <g>
       <use xlink:href="#mf38b047505" x="54" y="124.475397" style="stroke: #000000; stroke-width: 0.8"/>
      </g>
     </g>
     <g id="text_12">
      <!-- 50 -->
      <g transform="translate(35.84 128.66321) scale(0.12 -0.12)">
       <use xlink:href="#LibertinusSerif-Regular-35"/>
       <use xlink:href="#LibertinusSerif-Regular-30" transform="translate(46.499985 0)"/>
      </g>
     </g>
    </g>
    <g id="ytick_6">
     <g id="line2d_12">
      <g>
       <use xlink:href="#mf38b047505" x="54" y="70.364165" style="stroke: #000000; stroke-width: 0.8"/>
      </g>
     </g>
     <g id="text_13">
      <!-- 60 -->
      <g transform="translate(35.84 74.551977) scale(0.12 -0.12)">
       <defs>
        <path id="LibertinusSerif-Regular-36" d="M 922 2195 
Q 1069 2266 1238 2301 
Q 1408 2336 1530 2336 
Q 1965 2336 2221 2189 
Q 2477 2042 2585 1805 
Q 2694 1568 2694 1293 
Q 2694 1088 2627 851 
Q 2560 614 2416 406 
Q 2272 198 2048 64 
Q 1824 -70 1510 -70 
Q 1325 -70 1113 -9 
Q 902 51 713 217 
Q 525 384 403 691 
Q 282 998 282 1485 
Q 282 1862 432 2275 
Q 582 2688 877 3034 
Q 1146 3347 1469 3558 
Q 1792 3770 2278 3910 
Q 2355 3866 2355 3744 
Q 1933 3584 1645 3331 
Q 1357 3078 1184 2784 
Q 1011 2490 922 2195 
z
M 864 1965 
Q 838 1824 825 1699 
Q 813 1574 813 1466 
Q 813 922 921 637 
Q 1030 352 1206 253 
Q 1382 154 1581 154 
Q 1818 154 1990 403 
Q 2163 653 2163 1178 
Q 2163 1299 2131 1456 
Q 2099 1613 2016 1763 
Q 1933 1914 1782 2013 
Q 1632 2112 1395 2112 
Q 1312 2112 1168 2089 
Q 1024 2067 864 1965 
z
" transform="scale(0.015625)"/>
       </defs>
       <use xlink:href="#LibertinusSerif-Regular-36"/>
       <use xlink:href="#LibertinusSerif-Regular-30" transform="translate(46.499985 0)"/>
      </g>
     </g>
    </g>
    <g id="text_14">
     <!-- Algorithm Execution Time (× 150 μs) -->
     <g transform="translate(28.508437 323.943125) rotate(-90) scale(0.14 -0.14)">
      <defs>
       <path id="LibertinusSerif-Regular-6c" d="M 608 781 
L 608 3578 
Q 608 3821 582 3926 
Q 557 4032 470 4061 
Q 384 4090 198 4102 
Q 173 4134 163 4195 
Q 154 4256 160 4294 
Q 288 4307 467 4336 
Q 646 4365 812 4400 
Q 979 4435 1056 4467 
Q 1139 4467 1139 4403 
Q 1139 4403 1126 4224 
Q 1114 4045 1114 3731 
L 1114 781 
Q 1114 518 1149 396 
Q 1184 275 1283 243 
Q 1382 211 1574 198 
Q 1606 173 1606 96 
Q 1606 19 1574 -13 
Q 1414 -6 1235 -3 
Q 1056 0 864 0 
Q 672 0 493 -3 
Q 314 -6 147 -13 
Q 122 19 122 96 
Q 122 173 147 198 
Q 346 211 442 243 
Q 538 275 573 396 
Q 608 518 608 781 
z
" transform="scale(0.015625)"/>
       <path id="LibertinusSerif-Regular-67" d="M 2842 2477 
Q 2790 2477 2736 2515 
Q 2682 2554 2662 2592 
Q 2611 2669 2534 2669 
Q 2470 2669 2390 2617 
Q 2310 2566 2278 2515 
Q 2419 2374 2486 2224 
Q 2554 2074 2554 1850 
Q 2554 1536 2400 1318 
Q 2246 1101 2000 985 
Q 1754 870 1472 870 
Q 1286 870 1145 905 
Q 1005 941 890 1005 
Q 774 845 774 634 
Q 774 429 908 349 
Q 1043 269 1184 269 
Q 1210 269 1258 272 
Q 1306 275 1376 282 
Q 1491 294 1606 304 
Q 1722 314 1805 314 
Q 1926 314 2096 304 
Q 2266 294 2442 249 
Q 2618 205 2739 102 
Q 2880 -13 2950 -137 
Q 3021 -262 3021 -416 
Q 3021 -672 2864 -880 
Q 2707 -1088 2444 -1229 
Q 2182 -1370 1865 -1446 
Q 1549 -1523 1222 -1523 
Q 979 -1523 742 -1456 
Q 506 -1389 355 -1229 
Q 205 -1069 205 -794 
Q 205 -589 339 -381 
Q 474 -173 730 -19 
Q 608 45 521 173 
Q 435 301 435 474 
Q 435 640 508 822 
Q 582 1005 717 1120 
Q 582 1248 483 1414 
Q 384 1581 384 1837 
Q 384 2131 537 2348 
Q 691 2566 944 2688 
Q 1197 2810 1478 2810 
Q 1760 2810 1923 2739 
Q 2086 2669 2144 2630 
Q 2272 2797 2467 2877 
Q 2662 2957 2784 2957 
Q 2912 2957 2995 2889 
Q 3078 2822 3078 2720 
Q 3078 2624 3004 2550 
Q 2931 2477 2842 2477 
z
M 2042 1786 
Q 2042 2182 1882 2396 
Q 1722 2611 1421 2611 
Q 909 2611 909 1933 
Q 909 1728 947 1529 
Q 986 1331 1110 1200 
Q 1235 1069 1504 1069 
Q 1626 1069 1747 1123 
Q 1869 1178 1955 1334 
Q 2042 1491 2042 1786 
z
M 845 -64 
Q 704 -230 675 -364 
Q 646 -499 646 -666 
Q 646 -826 732 -944 
Q 819 -1062 944 -1139 
Q 1069 -1216 1200 -1251 
Q 1331 -1286 1414 -1286 
Q 1702 -1286 1993 -1206 
Q 2285 -1126 2477 -969 
Q 2669 -813 2669 -582 
Q 2669 -454 2598 -371 
Q 2528 -288 2342 -186 
Q 2202 -109 2006 -93 
Q 1811 -77 1568 -77 
Q 1504 -77 1376 -86 
Q 1248 -96 1101 -96 
Q 960 -96 845 -64 
z
" transform="scale(0.015625)"/>
       <path id="LibertinusSerif-Regular-6f" d="M 262 1312 
Q 262 1613 352 1885 
Q 442 2157 614 2362 
Q 794 2566 1050 2688 
Q 1306 2810 1619 2810 
Q 1984 2810 2243 2682 
Q 2502 2554 2659 2339 
Q 2816 2125 2889 1872 
Q 2963 1619 2963 1370 
Q 2963 1075 2860 790 
Q 2758 506 2547 294 
Q 2381 134 2147 35 
Q 1914 -64 1606 -64 
Q 1152 -64 854 144 
Q 557 352 409 669 
Q 262 986 262 1312 
z
M 1523 2586 
Q 1235 2586 1081 2419 
Q 928 2253 870 1997 
Q 813 1741 813 1459 
Q 813 1274 857 1050 
Q 902 826 1004 624 
Q 1107 422 1276 291 
Q 1446 160 1696 160 
Q 1850 160 2016 243 
Q 2182 326 2297 544 
Q 2413 762 2413 1165 
Q 2413 1856 2176 2221 
Q 1939 2586 1523 2586 
z
" transform="scale(0.015625)"/>
       <path id="LibertinusSerif-Regular-74" d="M 275 2746 
L 570 2746 
Q 570 3014 566 3155 
Q 563 3296 560 3357 
Q 557 3418 553 3440 
Q 550 3462 550 3488 
Q 550 3520 592 3539 
Q 634 3558 691 3578 
Q 800 3610 909 3667 
Q 1011 3725 1050 3725 
Q 1101 3725 1101 3667 
Q 1101 3667 1088 3488 
Q 1075 3309 1075 2995 
L 1075 2746 
L 1843 2746 
Q 1894 2746 1894 2707 
L 1894 2579 
Q 1894 2534 1843 2515 
Q 1792 2496 1741 2496 
L 1075 2496 
L 1075 877 
Q 1075 582 1116 435 
Q 1158 288 1286 288 
Q 1414 288 1552 329 
Q 1690 371 1811 467 
Q 1907 461 1926 358 
Q 1741 147 1513 41 
Q 1286 -64 1062 -64 
Q 845 -64 707 83 
Q 570 230 570 570 
L 570 2496 
L 192 2496 
Q 160 2496 160 2534 
L 160 2618 
Q 160 2656 185 2701 
Q 211 2746 275 2746 
z
" transform="scale(0.015625)"/>
       <path id="LibertinusSerif-Regular-68" d="M 1069 1830 
L 1069 781 
Q 1069 518 1097 400 
Q 1126 282 1206 246 
Q 1286 211 1453 198 
Q 1478 173 1478 96 
Q 1478 19 1453 -13 
Q 1318 -6 1161 -3 
Q 1005 0 819 0 
Q 627 0 451 -3 
Q 275 -6 115 -13 
Q 90 19 90 96 
Q 90 173 115 198 
Q 301 211 397 246 
Q 493 282 528 400 
Q 563 518 563 781 
L 563 3578 
Q 563 3846 531 3952 
Q 499 4058 409 4077 
Q 320 4096 154 4102 
Q 128 4134 118 4195 
Q 109 4256 115 4294 
Q 243 4307 422 4336 
Q 602 4365 768 4400 
Q 934 4435 1011 4467 
Q 1094 4467 1094 4403 
Q 1094 4403 1081 4224 
Q 1069 4045 1069 3731 
L 1062 2291 
Q 1062 2227 1084 2249 
Q 1107 2272 1126 2291 
Q 1421 2618 1699 2714 
Q 1978 2810 2214 2810 
Q 2381 2810 2521 2755 
Q 2662 2701 2746 2592 
Q 2854 2445 2886 2221 
Q 2918 1997 2918 1734 
L 2918 781 
Q 2918 518 2950 400 
Q 2982 282 3075 250 
Q 3168 218 3347 198 
Q 3373 173 3373 96 
Q 3373 19 3347 -13 
Q 3187 -6 3024 -3 
Q 2861 0 2669 0 
Q 2477 0 2313 -3 
Q 2150 -6 2016 -13 
Q 1990 19 1990 96 
Q 1990 173 2016 198 
Q 2182 218 2268 250 
Q 2355 282 2384 400 
Q 2413 518 2413 781 
L 2413 1754 
Q 2413 1901 2400 2025 
Q 2387 2150 2336 2246 
Q 2278 2355 2185 2416 
Q 2093 2477 1997 2477 
Q 1805 2477 1584 2377 
Q 1363 2278 1178 2099 
Q 1139 2054 1104 1993 
Q 1069 1933 1069 1830 
z
" transform="scale(0.015625)"/>
       <path id="LibertinusSerif-Regular-6d" d="M 1088 2291 
Q 1088 2234 1117 2250 
Q 1146 2266 1165 2291 
Q 1363 2515 1612 2662 
Q 1862 2810 2138 2810 
Q 2387 2810 2560 2672 
Q 2733 2534 2778 2342 
Q 2790 2298 2812 2310 
Q 2835 2323 2848 2336 
Q 3098 2598 3379 2704 
Q 3661 2810 3904 2810 
Q 4186 2810 4326 2675 
Q 4467 2541 4515 2310 
Q 4563 2080 4563 1792 
L 4563 781 
Q 4563 518 4592 400 
Q 4621 282 4710 246 
Q 4800 211 4973 198 
Q 4998 173 4998 96 
Q 4998 19 4973 -13 
Q 4838 -6 4672 -3 
Q 4506 0 4314 0 
Q 4122 0 3952 -3 
Q 3782 -6 3661 -13 
Q 3635 19 3635 96 
Q 3635 173 3661 198 
Q 3827 211 3913 246 
Q 4000 282 4029 400 
Q 4058 518 4058 781 
L 4058 1907 
Q 4058 2227 3958 2352 
Q 3859 2477 3674 2477 
Q 3488 2477 3273 2393 
Q 3059 2310 2829 2054 
Q 2835 1997 2835 1933 
Q 2835 1869 2835 1798 
L 2835 781 
Q 2835 518 2864 400 
Q 2893 282 2973 246 
Q 3053 211 3213 198 
Q 3238 173 3238 96 
Q 3238 19 3213 -13 
Q 3091 -6 2934 -3 
Q 2778 0 2586 0 
Q 2394 0 2224 -3 
Q 2054 -6 1933 -13 
Q 1907 19 1907 96 
Q 1907 173 1933 198 
Q 2106 211 2192 246 
Q 2278 282 2304 400 
Q 2330 518 2330 781 
L 2330 1894 
Q 2330 2214 2211 2345 
Q 2093 2477 1907 2477 
Q 1600 2477 1216 2099 
Q 1178 2054 1142 1993 
Q 1107 1933 1107 1830 
L 1107 781 
Q 1107 518 1139 400 
Q 1171 282 1254 250 
Q 1338 218 1504 198 
Q 1530 173 1530 96 
Q 1530 19 1504 -13 
Q 1357 -6 1203 -3 
Q 1050 0 858 0 
Q 666 0 490 -3 
Q 314 -6 166 -13 
Q 141 19 141 96 
Q 141 173 166 198 
Q 346 211 438 246 
Q 531 282 566 400 
Q 602 518 602 781 
L 602 2029 
Q 602 2214 570 2300 
Q 538 2387 448 2419 
Q 358 2451 186 2464 
Q 179 2496 172 2557 
Q 166 2618 173 2643 
Q 506 2688 666 2733 
Q 826 2778 960 2829 
Q 998 2829 1011 2813 
Q 1024 2797 1037 2778 
Q 1062 2726 1072 2579 
Q 1082 2432 1088 2291 
z
" transform="scale(0.015625)"/>
       <path id="LibertinusSerif-Regular-45" d="M 1798 2310 
Q 2074 2310 2192 2345 
Q 2310 2381 2342 2477 
Q 2374 2573 2381 2746 
Q 2413 2778 2489 2778 
Q 2566 2778 2592 2746 
Q 2586 2630 2582 2480 
Q 2579 2330 2579 2195 
Q 2579 2029 2582 1894 
Q 2586 1760 2592 1632 
Q 2566 1606 2489 1606 
Q 2413 1606 2381 1632 
Q 2374 1779 2342 1875 
Q 2310 1971 2192 2019 
Q 2074 2067 1798 2067 
L 1216 2067 
L 1216 653 
Q 1216 429 1296 339 
Q 1376 250 1574 250 
L 2317 250 
Q 2682 250 2870 496 
Q 3059 742 3155 1088 
Q 3270 1114 3379 1056 
Q 3341 813 3277 521 
Q 3213 230 3142 -13 
Q 3142 -13 3001 -9 
Q 2861 -6 2669 -3 
Q 2477 0 2323 0 
L 947 0 
Q 787 0 540 -3 
Q 294 -6 115 -13 
Q 90 19 90 96 
Q 90 173 115 198 
Q 339 211 460 243 
Q 582 275 627 396 
Q 672 518 672 781 
L 672 3347 
Q 672 3616 627 3734 
Q 582 3853 460 3888 
Q 339 3923 115 3930 
Q 90 3962 90 4038 
Q 90 4115 115 4141 
Q 307 4134 550 4131 
Q 794 4128 941 4128 
L 2573 4128 
Q 2688 4128 2745 4134 
Q 2803 4141 2886 4154 
Q 2912 4154 2912 4134 
Q 2918 4115 2934 4006 
Q 2950 3898 2972 3750 
Q 2995 3603 3017 3452 
Q 3040 3302 3053 3206 
Q 2950 3155 2842 3174 
Q 2771 3398 2697 3552 
Q 2624 3706 2493 3789 
Q 2362 3872 2118 3872 
L 1638 3872 
Q 1382 3872 1299 3773 
Q 1216 3674 1216 3462 
L 1216 2310 
L 1798 2310 
z
" transform="scale(0.015625)"/>
       <path id="LibertinusSerif-Regular-78" d="M 1165 2291 
L 1555 1715 
Q 1594 1664 1619 1661 
Q 1645 1658 1677 1702 
L 2093 2285 
Q 2208 2445 2163 2486 
Q 2118 2528 1939 2547 
Q 1914 2579 1914 2656 
Q 1914 2733 1939 2758 
Q 2067 2752 2201 2749 
Q 2336 2746 2477 2746 
Q 2624 2746 2736 2749 
Q 2848 2752 2944 2758 
Q 2976 2733 2976 2656 
Q 2976 2579 2944 2547 
Q 2771 2534 2636 2476 
Q 2502 2419 2323 2195 
L 1786 1510 
Q 1747 1466 1786 1414 
L 2362 602 
Q 2490 422 2579 339 
Q 2669 256 2761 233 
Q 2854 211 3002 198 
Q 3034 173 3034 96 
Q 3034 19 3002 -13 
Q 2886 -6 2752 -3 
Q 2618 0 2432 0 
Q 2259 0 2102 -3 
Q 1946 -6 1798 -13 
Q 1773 19 1773 96 
Q 1773 173 1798 198 
Q 1901 211 1958 230 
Q 2016 250 2003 317 
Q 1990 384 1882 538 
L 1510 1050 
Q 1478 1088 1456 1091 
Q 1434 1094 1395 1037 
L 992 454 
Q 883 301 921 259 
Q 960 218 1133 198 
Q 1165 173 1165 96 
Q 1165 19 1133 -13 
Q 1011 -6 876 -3 
Q 742 0 595 0 
Q 454 0 342 -3 
Q 230 -6 134 -13 
Q 109 19 109 96 
Q 109 173 134 198 
Q 250 205 342 227 
Q 435 250 531 323 
Q 627 397 755 557 
L 1293 1248 
Q 1325 1286 1286 1344 
L 730 2157 
Q 595 2355 457 2444 
Q 320 2534 154 2547 
Q 128 2579 128 2656 
Q 128 2733 154 2758 
Q 282 2752 422 2749 
Q 563 2746 704 2746 
Q 851 2746 1036 2749 
Q 1222 2752 1350 2758 
Q 1382 2733 1382 2656 
Q 1382 2579 1350 2547 
Q 1133 2522 1094 2486 
Q 1056 2451 1165 2291 
z
" transform="scale(0.015625)"/>
       <path id="LibertinusSerif-Regular-63" d="M 2547 582 
Q 2310 192 2051 64 
Q 1792 -64 1504 -64 
Q 902 -64 569 323 
Q 237 710 237 1331 
Q 237 1786 432 2118 
Q 627 2451 931 2630 
Q 1235 2810 1549 2810 
Q 2010 2810 2269 2637 
Q 2528 2464 2528 2202 
Q 2528 2054 2422 1987 
Q 2317 1920 2214 1920 
Q 2112 1920 2048 1971 
Q 1984 2022 1971 2150 
Q 1958 2266 1923 2368 
Q 1888 2470 1798 2534 
Q 1709 2598 1517 2598 
Q 1203 2598 995 2300 
Q 787 2003 787 1472 
Q 787 1101 905 825 
Q 1024 550 1219 400 
Q 1414 250 1645 250 
Q 1850 250 2051 355 
Q 2253 461 2413 672 
Q 2515 659 2547 582 
z
" transform="scale(0.015625)"/>
       <path id="LibertinusSerif-Regular-75" d="M 1389 -64 
Q 1075 -64 892 61 
Q 710 186 636 387 
Q 563 589 563 806 
L 563 2035 
Q 563 2349 480 2438 
Q 397 2528 166 2547 
Q 141 2579 141 2656 
Q 141 2733 166 2758 
Q 333 2752 499 2749 
Q 666 2746 819 2746 
Q 979 2746 1043 2758 
Q 1094 2758 1094 2720 
Q 1094 2720 1088 2595 
Q 1082 2470 1075 2313 
Q 1069 2157 1069 2061 
L 1069 896 
Q 1069 614 1158 470 
Q 1248 326 1366 281 
Q 1485 237 1581 237 
Q 1702 237 1872 313 
Q 2042 390 2221 544 
Q 2291 602 2307 653 
Q 2323 704 2323 794 
L 2323 2029 
Q 2323 2349 2243 2441 
Q 2163 2534 1926 2547 
Q 1901 2579 1901 2656 
Q 1901 2733 1926 2758 
Q 2093 2752 2259 2749 
Q 2426 2746 2579 2746 
Q 2739 2746 2803 2758 
Q 2854 2758 2854 2720 
Q 2854 2720 2848 2595 
Q 2842 2470 2835 2313 
Q 2829 2157 2829 2061 
L 2829 832 
Q 2829 595 2909 492 
Q 2989 390 3296 365 
Q 3328 339 3328 281 
Q 3328 224 3296 192 
Q 3002 160 2826 93 
Q 2650 26 2541 -64 
Q 2483 -90 2419 -64 
Q 2419 -64 2390 64 
Q 2362 192 2349 314 
Q 2342 346 2310 342 
Q 2278 339 2253 320 
Q 1786 -64 1389 -64 
z
" transform="scale(0.015625)"/>
       <path id="LibertinusSerif-Regular-6e" d="M 1178 2291 
Q 1459 2618 1724 2714 
Q 1990 2810 2227 2810 
Q 2394 2810 2534 2755 
Q 2675 2701 2758 2592 
Q 2867 2445 2899 2221 
Q 2931 1997 2931 1734 
L 2931 781 
Q 2931 518 2963 400 
Q 2995 282 3088 250 
Q 3181 218 3360 198 
Q 3386 173 3386 96 
Q 3386 19 3360 -13 
Q 3219 -6 3046 -3 
Q 2874 0 2682 0 
Q 2490 0 2333 -3 
Q 2176 -6 2029 -13 
Q 2003 19 2003 96 
Q 2003 173 2029 198 
Q 2195 218 2281 250 
Q 2368 282 2397 400 
Q 2426 518 2426 781 
L 2426 1754 
Q 2426 1901 2413 2025 
Q 2400 2150 2349 2246 
Q 2291 2355 2198 2416 
Q 2106 2477 2010 2477 
Q 1824 2477 1619 2377 
Q 1414 2278 1229 2099 
Q 1190 2054 1155 1993 
Q 1120 1933 1120 1830 
L 1120 781 
Q 1120 518 1149 400 
Q 1178 282 1264 250 
Q 1350 218 1510 198 
Q 1542 173 1542 96 
Q 1542 19 1510 -13 
Q 1370 -6 1216 -3 
Q 1062 0 870 0 
Q 678 0 496 -3 
Q 314 -6 166 -13 
Q 141 19 141 96 
Q 141 173 166 198 
Q 358 218 454 250 
Q 550 282 582 400 
Q 614 518 614 781 
L 614 2029 
Q 614 2214 582 2300 
Q 550 2387 460 2419 
Q 371 2451 198 2464 
Q 192 2496 185 2557 
Q 179 2618 186 2643 
Q 518 2688 678 2733 
Q 838 2778 973 2829 
Q 1011 2829 1024 2813 
Q 1037 2797 1050 2778 
Q 1075 2726 1084 2572 
Q 1094 2419 1101 2291 
Q 1101 2246 1123 2252 
Q 1146 2259 1178 2291 
z
" transform="scale(0.015625)"/>
       <path id="LibertinusSerif-Regular-54" d="M 2240 781 
Q 2240 518 2288 396 
Q 2336 275 2470 243 
Q 2605 211 2861 198 
Q 2893 173 2893 96 
Q 2893 19 2861 -13 
Q 2624 -6 2390 -3 
Q 2157 0 1971 0 
Q 1779 0 1545 -3 
Q 1312 -6 1075 -13 
Q 1050 19 1050 96 
Q 1050 173 1075 198 
Q 1331 211 1465 243 
Q 1600 275 1648 396 
Q 1696 518 1696 781 
L 1696 3245 
Q 1696 3539 1635 3708 
Q 1574 3878 1395 3878 
L 1082 3878 
Q 768 3878 550 3731 
Q 333 3584 237 3200 
Q 179 3200 124 3206 
Q 70 3213 19 3232 
Q 70 3462 115 3702 
Q 160 3942 179 4160 
Q 179 4179 205 4179 
Q 326 4173 585 4160 
Q 845 4147 1149 4137 
Q 1453 4128 1696 4128 
L 2246 4128 
Q 2502 4128 2793 4137 
Q 3085 4147 3328 4160 
Q 3571 4173 3680 4179 
Q 3699 4179 3699 4160 
Q 3706 3942 3728 3708 
Q 3750 3475 3782 3251 
Q 3738 3232 3677 3225 
Q 3616 3219 3565 3219 
Q 3482 3590 3258 3734 
Q 3034 3878 2675 3878 
L 2534 3878 
Q 2362 3878 2301 3705 
Q 2240 3533 2240 3226 
L 2240 781 
z
" transform="scale(0.015625)"/>
       <path id="LibertinusSerif-Regular-28" d="M 282 1613 
Q 282 2208 461 2752 
Q 640 3296 950 3747 
Q 1261 4198 1638 4525 
Q 1734 4518 1773 4410 
Q 1696 4326 1539 4112 
Q 1382 3898 1216 3555 
Q 1050 3213 931 2729 
Q 813 2246 813 1613 
Q 813 979 931 496 
Q 1050 13 1216 -332 
Q 1382 -678 1539 -892 
Q 1696 -1107 1773 -1197 
Q 1741 -1286 1638 -1306 
Q 1242 -960 986 -589 
Q 730 -218 586 137 
Q 442 493 378 793 
Q 314 1094 298 1312 
Q 282 1530 282 1613 
z
" transform="scale(0.015625)"/>
       <path id="LibertinusSerif-Regular-d7" d="M 1971 1613 
L 2758 832 
L 2534 608 
L 1754 1389 
L 973 608 
L 742 832 
L 1530 1613 
L 742 2400 
L 973 2624 
L 1754 1837 
L 2534 2624 
L 2758 2400 
L 1971 1613 
z
" transform="scale(0.015625)"/>
       <path id="LibertinusSerif-Regular-3bc" d="M 2061 384 
Q 1869 173 1654 54 
Q 1440 -64 1146 -64 
Q 960 -64 826 13 
Q 826 6 822 -3 
Q 819 -13 819 -32 
Q 819 -122 844 -368 
Q 870 -614 870 -870 
Q 870 -1120 832 -1325 
L 326 -1523 
L 256 -1408 
Q 320 -1242 333 -941 
Q 346 -640 346 -45 
Q 346 83 358 179 
Q 371 275 371 378 
Q 371 429 358 528 
Q 346 627 346 717 
L 346 2061 
Q 346 2195 336 2400 
Q 326 2605 275 2758 
Q 352 2746 499 2746 
Q 678 2746 838 2810 
Q 838 2810 841 2698 
Q 845 2586 848 2442 
Q 851 2298 851 2195 
L 851 954 
Q 851 640 931 432 
Q 1011 224 1267 224 
Q 1530 224 1750 355 
Q 1971 486 2074 646 
L 2074 2061 
Q 2074 2195 2070 2400 
Q 2067 2605 2035 2758 
Q 2112 2746 2259 2746 
Q 2438 2746 2598 2810 
Q 2598 2810 2595 2698 
Q 2592 2586 2585 2442 
Q 2579 2298 2579 2195 
L 2579 774 
Q 2579 557 2614 387 
Q 2650 218 2835 218 
Q 2950 218 2985 269 
Q 3021 320 3046 320 
Q 3066 320 3091 288 
Q 3117 256 3117 224 
Q 3117 211 3043 137 
Q 2970 64 2845 0 
Q 2720 -64 2560 -64 
Q 2374 -64 2272 9 
Q 2170 83 2128 188 
Q 2086 294 2074 384 
L 2061 384 
z
" transform="scale(0.015625)"/>
       <path id="LibertinusSerif-Regular-73" d="M 307 883 
Q 339 915 409 918 
Q 480 922 506 890 
Q 538 768 595 589 
Q 653 410 755 301 
Q 806 250 915 198 
Q 1024 147 1210 147 
Q 1331 147 1456 195 
Q 1581 243 1667 342 
Q 1754 442 1754 595 
Q 1754 736 1702 835 
Q 1651 934 1510 1024 
Q 1370 1114 1101 1222 
Q 730 1376 563 1558 
Q 397 1741 397 2093 
Q 397 2298 525 2461 
Q 653 2624 857 2717 
Q 1062 2810 1299 2810 
Q 1549 2810 1769 2762 
Q 1990 2714 2138 2688 
Q 2131 2528 2121 2355 
Q 2112 2182 2099 2010 
Q 2074 1984 2000 1981 
Q 1926 1978 1894 2003 
Q 1856 2278 1737 2403 
Q 1619 2528 1494 2563 
Q 1370 2598 1299 2598 
Q 1139 2598 995 2492 
Q 851 2387 851 2189 
Q 851 1926 1027 1814 
Q 1203 1702 1491 1594 
Q 1818 1472 2029 1270 
Q 2240 1069 2240 742 
Q 2240 506 2134 349 
Q 2029 192 1865 102 
Q 1702 13 1529 -25 
Q 1357 -64 1222 -64 
Q 1043 -64 905 -45 
Q 768 -26 640 6 
Q 608 19 576 19 
Q 544 19 512 19 
Q 448 19 352 0 
Q 352 205 339 425 
Q 326 646 307 883 
z
" transform="scale(0.015625)"/>
       <path id="LibertinusSerif-Regular-29" d="M 1626 1613 
Q 1626 1018 1446 477 
Q 1267 -64 960 -518 
Q 653 -973 269 -1299 
Q 173 -1293 134 -1184 
Q 211 -1094 368 -883 
Q 525 -672 691 -329 
Q 858 13 976 496 
Q 1094 979 1094 1613 
Q 1094 2246 976 2729 
Q 858 3213 691 3558 
Q 525 3904 368 4118 
Q 211 4333 134 4422 
Q 166 4512 269 4531 
Q 666 4186 922 3814 
Q 1178 3443 1322 3088 
Q 1466 2733 1530 2432 
Q 1594 2131 1610 1916 
Q 1626 1702 1626 1613 
z
" transform="scale(0.015625)"/>
      </defs>
      <use xlink:href="#LibertinusSerif-Regular-41"/>
      <use xlink:href="#LibertinusSerif-Regular-6c" transform="translate(69.499985 0)"/>
      <use xlink:href="#LibertinusSerif-Regular-67" transform="translate(95.899979 0)"/>
      <use xlink:href="#LibertinusSerif-Regular-6f" transform="translate(145.899963 0)"/>
      <use xlink:href="#LibertinusSerif-Regular-72" transform="translate(196.299957 0)"/>
      <use xlink:href="#LibertinusSerif-Regular-69" transform="translate(233.499954 0)"/>
      <use xlink:href="#LibertinusSerif-Regular-74" transform="translate(260.599945 0)"/>
      <use xlink:href="#LibertinusSerif-Regular-68" transform="translate(292.199936 0)"/>
      <use xlink:href="#LibertinusSerif-Regular-6d" transform="translate(345.999924 0)"/>
      <use xlink:href="#LibertinusSerif-Regular-20" transform="translate(424.999908 0)"/>
      <use xlink:href="#LibertinusSerif-Regular-45" transform="translate(449.999893 0)"/>
      <use xlink:href="#LibertinusSerif-Regular-78" transform="translate(505.69989 0)"/>
      <use xlink:href="#LibertinusSerif-Regular-65" transform="translate(554.699875 0)"/>
      <use xlink:href="#LibertinusSerif-Regular-63" transform="translate(599.399872 0)"/>
      <use xlink:href="#LibertinusSerif-Regular-75" transform="translate(642.19986 0)"/>
      <use xlink:href="#LibertinusSerif-Regular-74" transform="translate(695.29985 0)"/>
      <use xlink:href="#LibertinusSerif-Regular-69" transform="translate(726.899841 0)"/>
      <use xlink:href="#LibertinusSerif-Regular-6f" transform="translate(753.999832 0)"/>
      <use xlink:href="#LibertinusSerif-Regular-6e" transform="translate(804.399826 0)"/>
      <use xlink:href="#LibertinusSerif-Regular-20" transform="translate(858.599823 0)"/>
      <use xlink:href="#LibertinusSerif-Regular-54" transform="translate(883.599808 0)"/>
      <use xlink:href="#LibertinusSerif-Regular-69" transform="translate(943.299805 0)"/>
      <use xlink:href="#LibertinusSerif-Regular-6d" transform="translate(970.399796 0)"/>
      <use xlink:href="#LibertinusSerif-Regular-65" transform="translate(1049.39978 0)"/>
      <use xlink:href="#LibertinusSerif-Regular-20" transform="translate(1094.099777 0)"/>
      <use xlink:href="#LibertinusSerif-Regular-28" transform="translate(1119.099762 0)"/>
      <use xlink:href="#LibertinusSerif-Regular-d7" transform="translate(1148.89975 0)"/>
      <use xlink:href="#LibertinusSerif-Regular-20" transform="translate(1203.899734 0)"/>
      <use xlink:href="#LibertinusSerif-Regular-31" transform="translate(1228.899719 0)"/>
      <use xlink:href="#LibertinusSerif-Regular-35" transform="translate(1275.399704 0)"/>
      <use xlink:href="#LibertinusSerif-Regular-30" transform="translate(1321.899689 0)"/>
      <use xlink:href="#LibertinusSerif-Regular-20" transform="translate(1368.399673 0)"/>
      <use xlink:href="#LibertinusSerif-Regular-3bc" transform="translate(1393.399658 0)"/>
      <use xlink:href="#LibertinusSerif-Regular-73" transform="translate(1442.399643 0)"/>
      <use xlink:href="#LibertinusSerif-Regular-29" transform="translate(1481.399628 0)"/>
     </g>
    </g>
   </g>
   <g id="line2d_13">
    <path d="M 69.218182 351.185672 
L 75.429685 349.643014 
L 81.641187 346.630162 
L 87.85269 345.002855 
L 94.064193 342.127946 
L 100.275696 339.801218 
L 106.487199 336.959208 
L 112.698701 334.969416 
L 118.910204 331.684745 
L 125.121707 328.863184 
L 131.33321 326.36252 
L 137.544712 323.219103 
L 143.756215 317.359793 
L 149.967718 323.731632 
L 156.179221 320.847165 
L 162.390724 316.935068 
L 168.602226 313.978617 
L 174.813729 309.762644 
L 181.025232 306.238193 
L 187.236735 301.960942 
L 193.448237 298.642862 
L 199.65974 292.261669 
L 205.871243 273.602448 
L 212.082746 272.684789 
L 218.294249 267.044785 
L 224.505751 261.06761 
L 230.717254 256.019502 
L 236.928757 249.021873 
L 243.14026 238.46138 
L 249.351763 238.435073 
L 255.563265 233.925952 
L 261.774768 227.366678 
L 267.986271 220.222777 
L 274.197774 237.071791 
L 280.409276 232.796899 
L 286.620779 224.100667 
L 292.832282 182.821997 
L 299.043785 179.690476 
L 305.255288 159.773459 
L 311.46679 163.180275 
L 317.678293 168.188978 
L 323.889796 184.140463 
L 330.101299 179.057015 
L 336.312801 148.589567 
L 342.524304 165.992294 
L 348.735807 157.604581 
L 354.94731 153.434645 
L 361.158813 147.975384 
L 367.370315 137.246728 
L 373.581818 138.867028 
" clip-path="url(#p12f1e7a896)" style="fill: none; stroke: #ea76cb; stroke-opacity: 0.6; stroke-width: 1.5; stroke-linecap: square"/>
   </g>
   <g id="line2d_14">
    <path d="M 69.218182 365.126447 
L 75.429685 364.142072 
L 81.641187 361.174591 
L 87.85269 354.006117 
L 94.064193 351.132863 
L 100.275696 356.575656 
L 106.487199 355.086835 
L 112.698701 354.473996 
L 118.910204 352.920401 
L 125.121707 349.802948 
L 131.33321 348.546181 
L 137.544712 346.480725 
L 143.756215 345.317222 
L 149.967718 342.548472 
L 156.179221 340.238383 
L 162.390724 337.82503 
L 168.602226 335.959866 
L 174.813729 330.639068 
L 181.025232 330.376279 
L 187.236735 329.234536 
L 193.448237 326.968444 
L 199.65974 317.753976 
L 205.871243 311.970329 
L 212.082746 297.311341 
L 218.294249 313.188462 
L 224.505751 313.376517 
L 230.717254 309.129488 
L 236.928757 309.861804 
L 243.14026 303.281412 
L 249.351763 300.638066 
L 255.563265 295.094559 
L 261.774768 294.224661 
L 267.986271 291.790834 
L 274.197774 273.952013 
L 280.409276 285.379054 
L 286.620779 283.457548 
L 292.832282 259.828678 
L 299.043785 270.793423 
L 305.255288 271.969293 
L 311.46679 253.704296 
L 317.678293 247.965658 
L 323.889796 243.762603 
L 330.101299 239.488823 
L 336.312801 255.969748 
L 342.524304 252.20928 
L 348.735807 247.083359 
L 354.94731 242.171054 
L 361.158813 237.782705 
L 367.370315 227.952758 
L 373.581818 202.469326 
" clip-path="url(#p12f1e7a896)" style="fill: none; stroke: #40a02b; stroke-opacity: 0.6; stroke-width: 1.5; stroke-linecap: square"/>
   </g>
   <g id="patch_3">
    <path d="M 54 384.48 
L 54 51.84 
" style="fill: none; stroke: #000000; stroke-width: 0.8; stroke-linejoin: miter; stroke-linecap: square"/>
   </g>
   <g id="patch_4">
    <path d="M 388.8 384.48 
L 388.8 51.84 
" style="fill: none; stroke: #000000; stroke-width: 0.8; stroke-linejoin: miter; stroke-linecap: square"/>
   </g>
   <g id="patch_5">
    <path d="M 54 384.48 
L 388.8 384.48 
" style="fill: none; stroke: #000000; stroke-width: 0.8; stroke-linejoin: miter; stroke-linecap: square"/>
   </g>
   <g id="patch_6">
    <path d="M 54 51.84 
L 388.8 51.84 
" style="fill: none; stroke: #000000; stroke-width: 0.8; stroke-linejoin: miter; stroke-linecap: square"/>
   </g>
   <g id="legend_1">
    <g id="patch_7">
     <path d="M 61 117.35875 
L 176.532813 117.35875 
Q 178.532813 117.35875 178.532813 115.35875 
L 178.532813 58.84 
Q 178.532813 56.84 176.532813 56.84 
L 61 56.84 
Q 59 56.84 59 58.84 
L 59 115.35875 
Q 59 117.35875 61 117.35875 
z
" style="fill: #ffffff; opacity: 0.8; stroke: #cccccc; stroke-linejoin: miter"/>
    </g>
    <g id="patch_8">
     <path d="M 63 67.84 
L 83 67.84 
L 83 60.84 
L 63 60.84 
z
" style="fill: #ea76cb; fill-opacity: 0.3"/>
    </g>
    <g id="text_15">
     <!-- Normal-Range -->
     <g transform="translate(91 67.84) scale(0.1 -0.1)">
      <defs>
       <path id="LibertinusSerif-Regular-4e" d="M 3558 3277 
Q 3558 3571 3513 3699 
Q 3469 3827 3347 3868 
Q 3226 3910 3002 3930 
Q 2976 3962 2976 4038 
Q 2976 4115 3002 4141 
Q 3213 4134 3411 4131 
Q 3610 4128 3712 4128 
Q 3827 4128 4028 4131 
Q 4230 4134 4429 4141 
Q 4461 4115 4461 4038 
Q 4461 3962 4429 3930 
Q 4205 3910 4083 3865 
Q 3962 3821 3917 3693 
Q 3872 3565 3872 3277 
L 3872 134 
Q 3872 -64 3725 -64 
Q 3584 -64 3469 90 
L 1235 2912 
Q 1075 3123 1018 3123 
Q 979 3123 972 3049 
Q 966 2976 966 2810 
L 966 851 
Q 966 563 1011 432 
Q 1056 301 1177 262 
Q 1299 224 1523 198 
Q 1555 173 1555 96 
Q 1555 19 1523 -13 
Q 1325 -6 1123 -3 
Q 922 0 813 0 
Q 698 0 499 -3 
Q 301 -6 96 -13 
Q 70 19 70 96 
Q 70 173 96 198 
Q 320 224 441 265 
Q 563 307 608 438 
Q 653 570 653 851 
L 653 3520 
Q 627 3648 489 3782 
Q 352 3917 147 3930 
Q 122 3962 122 4038 
Q 122 4115 147 4141 
L 1011 4128 
L 3206 1344 
Q 3482 992 3514 992 
Q 3546 992 3552 1043 
Q 3558 1094 3558 1184 
L 3558 3277 
z
" transform="scale(0.015625)"/>
       <path id="LibertinusSerif-Regular-2d" d="M 1734 1427 
L 352 1427 
Q 307 1427 281 1465 
Q 256 1504 256 1549 
Q 256 1638 307 1724 
Q 358 1811 416 1811 
L 1818 1811 
Q 1869 1811 1888 1772 
Q 1907 1734 1907 1683 
Q 1907 1626 1852 1526 
Q 1798 1427 1734 1427 
z
" transform="scale(0.015625)"/>
       <path id="LibertinusSerif-Regular-52" d="M 1210 781 
Q 1210 518 1254 396 
Q 1299 275 1420 243 
Q 1542 211 1766 198 
Q 1798 173 1798 96 
Q 1798 19 1766 -13 
Q 1555 -6 1337 -3 
Q 1120 0 941 0 
Q 755 0 540 -3 
Q 326 -6 109 -13 
Q 83 19 83 96 
Q 83 173 109 198 
Q 333 211 454 243 
Q 576 275 621 396 
Q 666 518 666 781 
L 666 3347 
Q 666 3616 621 3734 
Q 576 3853 454 3888 
Q 333 3923 109 3930 
Q 83 3962 83 4038 
Q 83 4115 109 4141 
Q 333 4134 550 4131 
Q 768 4128 934 4128 
Q 1107 4128 1308 4150 
Q 1510 4173 1734 4173 
Q 2035 4173 2323 4128 
Q 2611 4083 2842 3866 
Q 3181 3546 3181 3066 
Q 3181 2816 3088 2624 
Q 2995 2432 2857 2301 
Q 2720 2170 2576 2086 
Q 2432 2003 2330 1971 
L 3136 627 
Q 3264 416 3398 275 
Q 3533 134 3750 134 
Q 3795 51 3757 -19 
Q 3712 -45 3635 -54 
Q 3558 -64 3488 -64 
Q 3200 -64 2992 109 
Q 2784 282 2643 506 
L 1958 1619 
Q 1914 1696 1843 1750 
Q 1773 1805 1625 1833 
Q 1478 1862 1210 1862 
L 1210 781 
z
M 1741 3955 
Q 1517 3955 1401 3891 
Q 1286 3827 1248 3734 
Q 1210 3642 1210 3546 
L 1210 2080 
L 1517 2080 
Q 1830 2080 2070 2157 
Q 2310 2234 2451 2448 
Q 2592 2662 2592 3059 
Q 2592 3437 2461 3629 
Q 2330 3821 2134 3888 
Q 1939 3955 1741 3955 
z
" transform="scale(0.015625)"/>
      </defs>
      <use xlink:href="#LibertinusSerif-Regular-4e"/>
      <use xlink:href="#LibertinusSerif-Regular-6f" transform="translate(69.899994 0)"/>
      <use xlink:href="#LibertinusSerif-Regular-72" transform="translate(120.299988 0)"/>
      <use xlink:href="#LibertinusSerif-Regular-6d" transform="translate(157.499985 0)"/>
      <use xlink:href="#LibertinusSerif-Regular-61" transform="translate(236.499969 0)"/>
      <use xlink:href="#LibertinusSerif-Regular-6c" transform="translate(282.199966 0)"/>
      <use xlink:href="#LibertinusSerif-Regular-2d" transform="translate(308.59996 0)"/>
      <use xlink:href="#LibertinusSerif-Regular-52" transform="translate(342.399948 0)"/>
      <use xlink:href="#LibertinusSerif-Regular-61" transform="translate(401.099945 0)"/>
      <use xlink:href="#LibertinusSerif-Regular-6e" transform="translate(446.799942 0)"/>
      <use xlink:href="#LibertinusSerif-Regular-67" transform="translate(500.999939 0)"/>
      <use xlink:href="#LibertinusSerif-Regular-65" transform="translate(550.999924 0)"/>
     </g>
    </g>
    <g id="line2d_15">
     <path d="M 63 78.719687 
L 73 78.719687 
L 83 78.719687 
" style="fill: none; stroke: #ea76cb; stroke-opacity: 0.6; stroke-width: 1.5; stroke-linecap: square"/>
    </g>
    <g id="text_16">
     <!-- Normal-Average -->
     <g transform="translate(91 82.219687) scale(0.1 -0.1)">
      <defs>
       <path id="LibertinusSerif-Regular-76" d="M 2080 2547 
Q 2054 2579 2054 2656 
Q 2054 2733 2080 2758 
Q 2202 2752 2355 2749 
Q 2509 2746 2669 2746 
Q 2797 2746 2909 2749 
Q 3021 2752 3117 2758 
Q 3149 2733 3149 2656 
Q 3149 2579 3117 2547 
Q 2848 2522 2752 2403 
Q 2656 2285 2566 2074 
L 1715 70 
Q 1651 -77 1562 -77 
Q 1453 -77 1402 58 
L 582 2080 
Q 518 2240 467 2336 
Q 416 2432 329 2480 
Q 243 2528 70 2547 
Q 45 2579 45 2656 
Q 45 2733 70 2758 
Q 218 2752 362 2749 
Q 506 2746 666 2746 
Q 826 2746 989 2749 
Q 1152 2752 1312 2758 
Q 1344 2733 1344 2656 
Q 1344 2579 1312 2547 
Q 1056 2515 1040 2432 
Q 1024 2349 1114 2118 
L 1574 883 
Q 1651 685 1692 678 
Q 1734 672 1811 864 
L 2330 2118 
Q 2426 2362 2384 2445 
Q 2342 2528 2080 2547 
z
" transform="scale(0.015625)"/>
      </defs>
      <use xlink:href="#LibertinusSerif-Regular-4e"/>
      <use xlink:href="#LibertinusSerif-Regular-6f" transform="translate(69.899994 0)"/>
      <use xlink:href="#LibertinusSerif-Regular-72" transform="translate(120.299988 0)"/>
      <use xlink:href="#LibertinusSerif-Regular-6d" transform="translate(157.499985 0)"/>
      <use xlink:href="#LibertinusSerif-Regular-61" transform="translate(236.499969 0)"/>
      <use xlink:href="#LibertinusSerif-Regular-6c" transform="translate(282.199966 0)"/>
      <use xlink:href="#LibertinusSerif-Regular-2d" transform="translate(308.59996 0)"/>
      <use xlink:href="#LibertinusSerif-Regular-41" transform="translate(342.399948 0)"/>
      <use xlink:href="#LibertinusSerif-Regular-76" transform="translate(411.899933 0)"/>
      <use xlink:href="#LibertinusSerif-Regular-65" transform="translate(461.59993 0)"/>
      <use xlink:href="#LibertinusSerif-Regular-72" transform="translate(506.299927 0)"/>
      <use xlink:href="#LibertinusSerif-Regular-61" transform="translate(543.499924 0)"/>
      <use xlink:href="#LibertinusSerif-Regular-67" transform="translate(589.199921 0)"/>
      <use xlink:href="#LibertinusSerif-Regular-65" transform="translate(639.199905 0)"/>
     </g>
    </g>
    <g id="patch_9">
     <path d="M 63 96.599375 
L 83 96.599375 
L 83 89.599375 
L 63 89.599375 
z
" style="fill: #40a02b; fill-opacity: 0.3"/>
    </g>
    <g id="text_17">
     <!-- Memorized-Range -->
     <g transform="translate(91 96.599375) scale(0.1 -0.1)">
      <defs>
       <path id="LibertinusSerif-Regular-4d" d="M 4243 742 
L 4077 3418 
L 4064 3418 
L 2624 32 
Q 2605 -6 2585 -35 
Q 2566 -64 2534 -64 
Q 2509 -64 2480 -32 
Q 2451 0 2438 32 
L 1114 3354 
L 1101 3354 
L 858 787 
Q 832 518 899 371 
Q 966 224 1280 198 
Q 1312 173 1312 96 
Q 1312 19 1280 -13 
Q 1139 -6 966 -3 
Q 794 0 678 0 
Q 563 0 419 -3 
Q 275 -6 128 -13 
Q 102 19 102 96 
Q 102 173 128 198 
Q 403 224 489 355 
Q 576 486 608 774 
L 864 3411 
Q 890 3654 870 3756 
Q 851 3859 752 3888 
Q 653 3917 429 3930 
Q 403 3962 403 4038 
Q 403 4115 429 4141 
L 1357 4128 
L 2669 877 
Q 2701 794 2720 794 
Q 2739 794 2778 883 
L 4134 4128 
L 4973 4141 
Q 5005 4115 5005 4038 
Q 5005 3962 4973 3930 
Q 4755 3917 4659 3875 
Q 4563 3834 4540 3738 
Q 4518 3642 4531 3469 
L 4723 774 
Q 4742 512 4774 393 
Q 4806 275 4902 243 
Q 4998 211 5216 198 
Q 5248 173 5248 96 
Q 5248 19 5216 -13 
Q 5056 -6 4861 -3 
Q 4666 0 4518 0 
Q 4378 0 4195 -3 
Q 4013 -6 3834 -13 
Q 3808 19 3808 96 
Q 3808 173 3834 198 
Q 4045 211 4134 236 
Q 4224 262 4240 374 
Q 4256 486 4243 742 
z
" transform="scale(0.015625)"/>
       <path id="LibertinusSerif-Regular-64" d="M 2138 320 
Q 1901 128 1712 32 
Q 1523 -64 1338 -64 
Q 992 -64 749 112 
Q 506 288 378 598 
Q 250 909 250 1299 
Q 250 1658 368 1939 
Q 486 2221 691 2426 
Q 883 2611 1110 2710 
Q 1338 2810 1651 2810 
Q 1760 2810 1869 2784 
Q 1978 2758 2058 2729 
Q 2138 2701 2150 2701 
Q 2208 2701 2208 2758 
L 2208 3578 
Q 2208 3846 2176 3952 
Q 2144 4058 2054 4077 
Q 1965 4096 1798 4102 
Q 1773 4134 1763 4195 
Q 1754 4256 1760 4294 
Q 1888 4307 2067 4336 
Q 2246 4365 2412 4400 
Q 2579 4435 2656 4467 
Q 2739 4467 2739 4403 
Q 2739 4403 2726 4224 
Q 2714 4045 2714 3731 
L 2714 832 
Q 2714 595 2794 492 
Q 2874 390 3181 365 
Q 3213 339 3213 281 
Q 3213 224 3181 192 
Q 2886 160 2710 93 
Q 2534 26 2426 -64 
Q 2368 -90 2304 -64 
Q 2304 -64 2275 67 
Q 2246 198 2234 314 
Q 2227 346 2195 342 
Q 2163 339 2138 320 
z
M 2208 794 
L 2208 2010 
Q 2208 2157 2189 2217 
Q 2170 2278 2099 2355 
Q 2003 2464 1878 2525 
Q 1754 2586 1581 2586 
Q 1485 2586 1309 2538 
Q 1133 2490 986 2266 
Q 915 2163 857 1961 
Q 800 1760 800 1414 
Q 800 1018 905 755 
Q 1011 493 1171 365 
Q 1331 237 1504 237 
Q 1754 237 2106 544 
Q 2176 602 2192 653 
Q 2208 704 2208 794 
z
" transform="scale(0.015625)"/>
      </defs>
      <use xlink:href="#LibertinusSerif-Regular-4d"/>
      <use xlink:href="#LibertinusSerif-Regular-65" transform="translate(83.899994 0)"/>
      <use xlink:href="#LibertinusSerif-Regular-6d" transform="translate(128.599991 0)"/>
      <use xlink:href="#LibertinusSerif-Regular-6f" transform="translate(207.599976 0)"/>
      <use xlink:href="#LibertinusSerif-Regular-72" transform="translate(257.999969 0)"/>
      <use xlink:href="#LibertinusSerif-Regular-69" transform="translate(295.199966 0)"/>
      <use xlink:href="#LibertinusSerif-Regular-7a" transform="translate(322.299957 0)"/>
      <use xlink:href="#LibertinusSerif-Regular-65" transform="translate(364.699951 0)"/>
      <use xlink:href="#LibertinusSerif-Regular-64" transform="translate(409.399948 0)"/>
      <use xlink:href="#LibertinusSerif-Regular-2d" transform="translate(459.999939 0)"/>
      <use xlink:href="#LibertinusSerif-Regular-52" transform="translate(493.799927 0)"/>
      <use xlink:href="#LibertinusSerif-Regular-61" transform="translate(552.499924 0)"/>
      <use xlink:href="#LibertinusSerif-Regular-6e" transform="translate(598.199921 0)"/>
      <use xlink:href="#LibertinusSerif-Regular-67" transform="translate(652.399918 0)"/>
      <use xlink:href="#LibertinusSerif-Regular-65" transform="translate(702.399902 0)"/>
     </g>
    </g>
    <g id="line2d_16">
     <path d="M 63 107.479062 
L 73 107.479062 
L 83 107.479062 
" style="fill: none; stroke: #40a02b; stroke-opacity: 0.6; stroke-width: 1.5; stroke-linecap: square"/>
    </g>
    <g id="text_18">
     <!-- Memorized-Average -->
     <g transform="translate(91 110.979062) scale(0.1 -0.1)">
      <use xlink:href="#LibertinusSerif-Regular-4d"/>
      <use xlink:href="#LibertinusSerif-Regular-65" transform="translate(83.899994 0)"/>
      <use xlink:href="#LibertinusSerif-Regular-6d" transform="translate(128.599991 0)"/>
      <use xlink:href="#LibertinusSerif-Regular-6f" transform="translate(207.599976 0)"/>
      <use xlink:href="#LibertinusSerif-Regular-72" transform="translate(257.999969 0)"/>
      <use xlink:href="#LibertinusSerif-Regular-69" transform="translate(295.199966 0)"/>
      <use xlink:href="#LibertinusSerif-Regular-7a" transform="translate(322.299957 0)"/>
      <use xlink:href="#LibertinusSerif-Regular-65" transform="translate(364.699951 0)"/>
      <use xlink:href="#LibertinusSerif-Regular-64" transform="translate(409.399948 0)"/>
      <use xlink:href="#LibertinusSerif-Regular-2d" transform="translate(459.999939 0)"/>
      <use xlink:href="#LibertinusSerif-Regular-41" transform="translate(493.799927 0)"/>
      <use xlink:href="#LibertinusSerif-Regular-76" transform="translate(563.299911 0)"/>
      <use xlink:href="#LibertinusSerif-Regular-65" transform="translate(612.999908 0)"/>
      <use xlink:href="#LibertinusSerif-Regular-72" transform="translate(657.699905 0)"/>
      <use xlink:href="#LibertinusSerif-Regular-61" transform="translate(694.899902 0)"/>
      <use xlink:href="#LibertinusSerif-Regular-67" transform="translate(740.599899 0)"/>
      <use xlink:href="#LibertinusSerif-Regular-65" transform="translate(790.599884 0)"/>
     </g>
    </g>
   </g>
  </g>
 </g>
 <defs>
  <clipPath id="p12f1e7a896">
   <rect x="54" y="51.84" width="334.8" height="332.64"/>
  </clipPath>
 </defs>
</svg>
